<mxfile host="app.diagrams.net" modified="2023-03-19T21:43:28.952Z" agent="5.0 (Windows)" etag="UaSWjn4xRplvlfPKgZiX" version="21.0.6" type="github">
  <diagram id="R2lEEEUBdFMjLlhIrx00" name="Page-1">
    <mxGraphModel dx="880" dy="462" grid="1" gridSize="10" guides="1" tooltips="1" connect="1" arrows="1" fold="1" page="1" pageScale="1" pageWidth="850" pageHeight="1100" math="0" shadow="0" extFonts="Permanent Marker^https://fonts.googleapis.com/css?family=Permanent+Marker">
      <root>
        <mxCell id="0" />
        <mxCell id="1" parent="0" />
        <mxCell id="06HdiTI4tSevg3yqKeNa-1" value="&#xa;&lt;p id=&quot;docs-internal-guid-52c37c2f-7fff-da05-f275-77eb2866049e&quot; style=&quot;line-height:1.38;text-align: justify;margin-top:0pt;margin-bottom:0pt;&quot; dir=&quot;ltr&quot;&gt;&lt;span style=&quot;font-size: 11pt; font-family: Arial; color: rgb(0, 0, 0); background-color: transparent; font-weight: 400; font-style: normal; font-variant: normal; text-decoration: none; vertical-align: baseline;&quot;&gt;Exercicio8&lt;/span&gt;&lt;/p&gt;&lt;p style=&quot;line-height:1.38;text-align: justify;margin-top:0pt;margin-bottom:0pt;&quot; dir=&quot;ltr&quot;&gt;&lt;span style=&quot;font-size: 11pt; font-family: Arial; color: rgb(0, 0, 0); background-color: transparent; font-weight: 400; font-style: normal; font-variant: normal; text-decoration: none; vertical-align: baseline;&quot;&gt;Seguradora de Automóveis&lt;/span&gt;&lt;/p&gt;&lt;p style=&quot;line-height:1.38;text-align: justify;margin-top:0pt;margin-bottom:0pt;&quot; dir=&quot;ltr&quot;&gt;&lt;span style=&quot;font-size: 11pt; font-family: Arial; color: rgb(0, 0, 0); background-color: transparent; font-weight: 400; font-style: normal; font-variant: normal; text-decoration: none; vertical-align: baseline;&quot;&gt;Uma companhia de seguros de automóveis possui um conjunto de clientes e necessita de um sistema que atenda às seguintes condições:&lt;/span&gt;&lt;/p&gt;&lt;p style=&quot;line-height:1.38;text-align: justify;margin-top:0pt;margin-bottom:0pt;&quot; dir=&quot;ltr&quot;&gt;&lt;span style=&quot;font-size: 11pt; font-family: Arial; color: rgb(0, 0, 0); background-color: transparent; font-weight: 400; font-style: normal; font-variant: normal; text-decoration: none; vertical-align: baseline;&quot;&gt;a) Cada um possui um determinado número de carros.&lt;/span&gt;&lt;/p&gt;&lt;p style=&quot;line-height:1.38;text-align: justify;margin-top:0pt;margin-bottom:0pt;&quot; dir=&quot;ltr&quot;&gt;&lt;span style=&quot;font-size: 11pt; font-family: Arial; color: rgb(0, 0, 0); background-color: transparent; font-weight: 400; font-style: normal; font-variant: normal; text-decoration: none; vertical-align: baseline;&quot;&gt;b) Os dados do cliente são nome, RG, CPF, endereço e telefone.&lt;/span&gt;&lt;/p&gt;&lt;p style=&quot;line-height:1.38;text-align: justify;margin-top:0pt;margin-bottom:0pt;&quot; dir=&quot;ltr&quot;&gt;&lt;span style=&quot;font-size: 11pt; font-family: Arial; color: rgb(0, 0, 0); background-color: transparent; font-weight: 400; font-style: normal; font-variant: normal; text-decoration: none; vertical-align: baseline;&quot;&gt;c) Para os carros deve-se armazenar a placa, código RENAVAM, fabricante, modelo e ano;&lt;/span&gt;&lt;/p&gt;&lt;p style=&quot;line-height:1.38;text-align: justify;margin-top:0pt;margin-bottom:0pt;&quot; dir=&quot;ltr&quot;&gt;&lt;span style=&quot;font-size: 11pt; font-family: Arial; color: rgb(0, 0, 0); background-color: transparent; font-weight: 400; font-style: normal; font-variant: normal; text-decoration: none; vertical-align: baseline;&quot;&gt;d) Para cada carro, existe um histórico de ocorrências, e um carro podem possuir várias ocorrências ou nenhuma;&lt;/span&gt;&lt;/p&gt;&lt;p style=&quot;line-height:1.38;text-align: justify;margin-top:0pt;margin-bottom:0pt;&quot; dir=&quot;ltr&quot;&gt;&lt;span style=&quot;font-size: 11pt; font-family: Arial; color: rgb(0, 0, 0); background-color: transparent; font-weight: 400; font-style: normal; font-variant: normal; text-decoration: none; vertical-align: baseline;&quot;&gt;Cada ocorrência deve ter uma data, local e descrição.&lt;/span&gt;&lt;/p&gt;&#xa;&#xa;" style="text;html=1;strokeColor=none;fillColor=none;align=center;verticalAlign=middle;whiteSpace=wrap;rounded=0;" vertex="1" parent="1">
          <mxGeometry x="15" y="120" width="820" height="30" as="geometry" />
        </mxCell>
        <mxCell id="06HdiTI4tSevg3yqKeNa-2" value="" style="shape=image;verticalLabelPosition=bottom;labelBackgroundColor=default;verticalAlign=top;aspect=fixed;imageAspect=0;image=data:image/png,iVBORw0KGgoAAAANSUhEUgAAAu0AAAHtCAYAAACtVkD6AABkRUlEQVR4XuzdCfhUZf3//wQEBS40STAQChERo8gFL7NIEUXcM00T6UrRFM3cl69+f5ZL5LfMMiU2tzRNxSTMDYRyIbfMFpfLJQ1yZVchkE3u//W6/Z/pfG5mzjZzZs7yfFzXXJ9z7nPumfnMnPs+77nPfe77EwYAAABApn3CTQAAAACQLQTtAAAAQMYRtAMAAAAZR9AOAAAAZBxBOwAAAJBxBO0AAABAxhG0AwAAABlH0A4AAABkHEE7AAAAkHEE7QAAAEDGEbQDAAAAGUfQDgAAAGQcQTsAAACQcQTtAAAAQMYRtAMAAAAZR9AOAAAAZBxBOwAAAJBxBO0AAABAxhG0AwAAABlH0A4AAABkHEE7AAAAkHEE7QAAAEDGEbQDAAAAGUfQDgAAAGQcQTsAAACQcQTtAAAAQMYRtAMAAAAZR9AOAAAAZBxBOwAAAJBxBO0AAABAxhG0AwAAABlH0A4AAABkHEE7AAAAkHEE7QAAAEDGEbQDAAAAGUfQDgAAAGQcQTsAAACQcQTtAAAAQMYRtAMAAAAZR9AOAAAAZBxBOwAAAJBxBO0AAABAxhG0AwAAABlH0N5Ec+fONaNHjzZ9+vQxn/jEJ+xfrSsdAAAAqIWgvQnWrVtnTj31VBuo13pou/YDAAAAXATtTRAWsPsD91q8faoJ2gYAAID8I9JLmbq+uMF50CNJVxmCdgAAgGIj0kvZMcccs1FgHvTQ/tX4A/NFixaZfffd1/Tt29dMnjyZoB0AAKDgiPRS1rt3740C86CH9q/GH5iPHTvWLk+aNKlN1xsAAAAUE5Feyjp16rRRYB700P7V+ANz74fAsmXLbKs7QTsAAECxEelF0L17942C6yiPAQMGpNLS7v0QWL9+vX34twEAAKB4iPRCbNiwwbRr185NjiyNPu3eOO9Lliwx7777LkE7AABAwRHphVBLdvv27d3kyBo1eow/MB83bpxdnjBhgjnjjDMI2gEAAAqOSC+EJjzadNNN3eRYGj1Ou1rYR4wYYbvtKHAnaAcAACg2Ir0Qa9asMR07dnSTY2FGVAAAANSDoD3E6tWrzWabbeYmJ6KuL6NHj670SddfrdfqEgMAAAAIQXuIVatWmc0339xNBgAAAJqGoD3EypUrTZcuXdxkAAAAoGkI2kOsWLHCdO3a1U0GAAAAmoagPcTy5ctNt27d3GQAAACgaQjaQ7z//vtmiy22cJMBAACApiFoD/Hee++ZT37yk24yAAAA0DQE7SGWLl1qttpqKze5aT766CNzxx13mAMOOMB8+tOftkNFbrPNNmbfffc1v/jFL2z3HQAAABQbQXsIzT76qU99yk1uCv1gGD58uNlzzz3NnXfead59912brr/333+/HeNdgfxvf/tbJycAAACKhKA9xKJFi8zWW2/tJqdOLewK2M8880y7XMtf/vIX89nPftZMmTLF3QQAAICCIGgPsXDhQtOzZ083OXW33367bWEPCtg9//rXv+wPixdeeMHdBAAAgAIgaA+hrijqQ95sBx54oLnrrrvc5Jp+/OMfmxNOOMFNtn3g9VCf+GHDhtk0dfnRet++fc21115b2QcAAADZRKQW4p133jG9evVyk1On1n2vD3sUr7/+uvnMZz7jJlcCcvWJV7Au48aNs2mTJk0yxx57LEE7AABAxhGphXjrrbdM79693eTUdezY0axdu9ZNrmn16tVms802c5MrAbmGrvT06dPHpimIf+ONNwjaAQAAMo5ILcSbb75pg9wkunfvXgmI4zwGDBhgevToYfvTRzVv3ryq79N7zvXr11fS9IPAS9MPA28fAAAAZBORWoh///vftu93XBs2bDDt2rVzkyPTOOwa1jEqr6uLq1pArisHSlu8eLH9UVJtHwAAAGQHkVqI+fPn2yEV41IrdocOHdzkyDRxUrUgvJo1a9aY/v37m0ceecTdVDUg9/dpP+6446ruAwAAgOwgUguh4RT79evnJodSt5NNN93UTY7sgw8+sBMnaRz2MArCjzrqKDfZqhaQa+z5r3zlK7bFfcKECXZ7586d2+wDAACA7CBoD6FRWdSKHZdavzt16uQmx6KZTtXKrx8O1eg1FLDvsssuZsWKFe7mmjTD609+8hOzfPly89xzz9mgfcSIEe5uAAAAyAiC9hD//Oc/zfbbb+8mh/rwww/N5ptv7ibHNnXqVDtxksZhf+WVV2zaa6+9ZiZPnmzfl1rY4wTs8uCDD5qdd97ZdOnSxY44s88++5hXX33V3Q0AAAAZQdAeQsHsDjvs4CaHWrlyZcO6nLz44ot24iS1uqtVXOOxjxkzpmofdgAAABQPQXuIl19+2QwcONBNDqXW765du7rJAAA01dy5c83o0aMrc3Tor9aVDiA/CNpDvPTSS2bQoEFucij1F+/WrZubDABAU6xbt86ceuqplQEJqj20XfsByD6C9hDqmrLTTju5yaHef/99s+WWW7rJAAA0RVjA7g/ca/H2qSZoG4DGo7SFeOGFF8zgwYPd5FDLli0zn/zkJ91kAABSp64vbnAe9EjSVYagHWguSlsIDYn4+c9/3k0OtXTpUtO9e3c3GQCA1B1zzDEbBeZBD+1fjT8w1xwfmq1bs4RrBDOCdqC5KG0h/vGPf5ghQ4a4yaEWL15sh2pslY8++sjccccd5oADDrCTNKli3WabbWyFq9lW1eceAFBMmjzPDcyDHtq/Gn9gPnbsWLus2bT9XW8ANAelLcTf/vY388UvftFNDrVw4ULTo0cPN7kp1Mo/fPhws+eee5o777zTvPvuuzZdf++//347aoACeU3eBAAoHk3u5wbmQY9akwH6A3Pvh4C6f6rVnaAdaC5KW4i//vWvdsbRuBYsWGBbtptNLewK2M8880y7XMtf/vIXO+77lClT3E11ueWWW+wMsjoBHHrooe5mAEAd1O3SDbirPTp06LBRWtAjSku790Ng/fr19uHfBiB9lLYQCm533XVXNznUO++8Y3r16uUmp+7222+3LexBAbvnX//6l+3Co5ttG2XTTTe1lfjbb79tZ4UFADRO1CA5jT7t3jjvS5YssVdu/dsApI/SFuKZZ54xQ4cOdZNDvfXWWzVbLtJ04IEHmrvuustNrunHP/6xnW3VtXbtWnPhhReabbfd1k4SNXLkSDN//ny7zauob7rpJtvqM2LECFuJuycBAEBjRa1bGzV6jL8+HzdunF2eMGGCOeOMM9psA5A+SluIp59+2uy+++5ucqg33njDtko0W8+ePSt92KN4/fXXzWc+8xk32Vx22WW2Mp44caKZM2eOXVYLvngVtSpwbdfyySef3GYbAKDx4tSvjR6nXY0zaqRRY40Cd+p7oLkobSGeeuops8cee7jJof79739XDYbT1rFjR9tKHtXq1avNZptt5iab7bff3lbGuuHI5VXUutlWo+RoWS3y/m0AgMaLU78yIypQLNFLf0k98cQT5ktf+pKbHGrevHn2Rs8kot5o5D4GDBhgR6xRMB2V3me1KwIK5PWcutnI5b2eKno9tOyNPOBtAwA0XpL6VV1fNGqY1yddf7Veq0sMgGyKX/pL5vHHHzdf/vKX3eRQuslzu+22c5ND6QbSdu3aucmRaRx2DesYlcbbPfbYY93kSku7WtJdXmCufvteS7sm2/BvAwA0HvUrUF6U/hBqifjKV77iJod67bXXbOAbl1quNVRXUpo4qVoQXs2aNWvs8IyPPPKIu8lccskl9uSgfouPPfaYXfa6CXmBufqxa8hILZ922mlttgEAGo/6FSgvSn8IBaxf/epX3eRQr776qu2uEpf6o6tfelIffPCBnThJQ1WG0Y2kRx11lJtsKaA/55xz7HNp9Jj999/fXj0QLzC/8sorzRZbbGFGjRplJ3Tyb0NzMPMtUC7Ur0B5UfpDqBV6r732cpNDvfzyy2bgwIFucqhaN4bGoZlO1Z/eC7JdCsgVsGvSqBUrVribQxGYZwMz3wLlQ90LlBelP8TDDz9sA6O4XnrpJTNo0CA3OdSqVatM586d3eTYpk6daidO0jjsr7zyik1Tl53JkyfbbjtqYU8SsAtBe+s1auZbdwZbvlsg2yifQHlR+kP84Q9/MPvss4+bHOrFF180O+20k5sc6j//+Y/tjtIIeg+aOElBmyp6DUE5ZsyYqn3YkS+NmvmWGWyBfCFoB8qL0h9CEwupf3Bczz//vBk8eLCbHEp9kLt16+YmA200YuZbr1Xd37ruLT/77LOmffv25otf/KL9YaB7LXQ8K03bdMO07nnYaqutTK9evczFF18c6QcEgPo0K2jnfhkge5pT+nPsoYceMvvtt5+bHOq5554zX/jCF9zkUO+//77Zcsst3WSgjUbNfOt2h/Gvn3vuuXZZs97+6Ec/ssvnnXee3Xb55Zfb9WuuucZcffXVdvmqq66qPA+AdDQjaOd+GSCb0i/9OTdr1iw7ckpcf//7320rZVyagVStl0CQRs18GxS06/4K9XfX8bj55pubfv36mZUrV9ptWtZ+ixYtspN5aTnJjdcA4kk7aG/U/TJB3HoHQDSUmhAPPvigHdIwrr/+9a9m5513dpNDLVmyxHzqU59yk5FzSWe5rfZo5My33nPWWr/ssssqaWeddVYlXT8alOafFbcRN1ADCOYvn2lo1P0yQdx6BkA0lJoQDzzwgO0/HJf6/e66665ucii1XKoSRLE0+gTVqJlv3ZOnf12XyPVjo3fv3rbLloLyN998027zbm7W8bpgwQK7nGS0JADxNLoucTXifhnx6pKbbrrJ1iMjRoywjVL+baKueyNHjrT3culq4JAhQ2y3VNHVxAsvvNBsu+22doAG7Td//vzQfEBRpVv6C+C+++4zBx10kJsc6plnnjFDhw51k0MpAFJ/5Vbh5qN0NPpE26iZb4OC9pNOOskua1hI9V3XsveaF110kV3392nXMoB0NboucTX6fhnNCaL7YrSsWbT920QzbauOUXc8dblRet++fe0270qf8mtQCC3rKkBYPqCo0i39BXDvvfeaQw45xE0O9fTTT5vdd9/dTQ71zjvv2GC5Fbj5KD2NPtE2auZb/8nTv/7nP//ZtGvXzk7AtWHDBrN+/XrbkrXJJpuYp556yv4QOOOMMyqjx1x66aV2PwDpanRd4mr0/TLqxrd48WK7rBZz/zaP6hSNRqURqpSuUapEc4poXfd6VVMrH1BU6Zb+ArjnnnvspDNxqTJRS0Bcb731lu2O0GyNuvlIrbl77723m1yVW3HX4k4AlEdR/s+40p75FkD2JK1Lot5Xo8C3kffL+O97UR3u3ybeVTxd3X3iiSfabNOPAS2r0cAVlA8oKo7wEDNmzDBf+9rX3ORQqkS8y3hxvPHGG1UrwLQ16uajOBVn1H2LMAFQlP8ziTRnvgWQPUnrkqj5Gn2/jBqivJZ2r/uKv+5XX3Ut6+qhHv5tXku78ruC8gFFxREeYvr06ebwww93k0P96U9/Ml/+8pfd5FC6yaZa/8C0NeLmI6/S9FeeamE5//zzbT9JXUG44IILbJp//6D9aj1nrYl9vP2mTZtm7ynQScI7AdV6Dc8ll1xSWW60NE8mzHwLlEfSuiRqvkbfL6N+7Loyq+XTTjutzTZRfaXl2bNnmyuuuKLNNtXJWp4wYYJ57LHH7LJ3BTsoH1BUHOEh7r77bnPEEUe4yaFUwQwbNsxNDqVWbI2B3WyNvvnIM378eLuu1pgbb7zRLivIdveNup8ETezj7atuPhpjX8s6qYS9hpc3rcDd//4BIKmkdUnUfI2+X+bKK680W2yxhR06WfdN+beJGsZ0/tGAB6eeemqbbfpRoAYavR+1rGvOFK87YFA+oKg4wkOo9fnII490k0M9+uijZq+99nKTQ6lrgxdkNlOjbz7yaExxrWuoL3XT0PJ222230b5R95OgiX28ffU8qvC1rBsqw17DnzeNwN3//gEgqaR1SZx8jbhfxq23AdSPEhVC3SxqtSQEefjhhyPfkOn3z3/+0waXSUS90ch9pDlZj3cjkf/RoUOHjfaNup8ETezj7hv1Nfz7Kmj3+tE36qFRVwCgXqpPkoibr977Zby6D0DjUKJCaMzyo48+2k0O9Yc//MHss88+bnIoVY5JpoNXn26vRTmJRt985PH6HeqSq8u/b9T9JGhiH3ffqK8h2pZGK7v43xMAJJW0LkmSj/tlgGyJX4pLRqOqHHPMMW5yKE0EoUA4rpdeeinRzJJqcVbrcFKNuvlIM2eqcn/vvffsun8SHnUZ0rJ3BcIfUEfdz93XndjH3Tfqa0haAbv43xMAJJW0LkmaD0B2UIpD3HbbbXZSobg0nfJ+++3nJodSy8bnPvc5NzmU+ph7Y+Am0aibj2699VbTpUsXe9OR6H3pJiGN9KJ0zS6rCaTEH1BH3U+CJvZx9436GmlL64TJDLZAuSStS5LmA5AdlOIQCkJ1OTCumTNn2jvd43r++efN5z//eTc5lKZy3nzzzd3kWBpx8xGqS+OEyQy2QPkkrUuS5gOQHZTiEJqN81vf+pabHOrBBx+0rZ9x/eMf/7DTxcf1n//8x7Ye16vem49QXaNPmI2awbaV3KsiAMIlLTNJ8wHIDkpxiJtvvtl8+9vfdpNDqaVTExbF9be//c3svPPObnIodYPo1q2bm5wINx81XqNPmI2awbaVCNqB+JKWmaT5AGQHpTjETTfdZI477jg3OdS9995rDj74YDc51LPPPmt23XVXNzmUbvzUTaDIpkafMBsxg614gbN+nO622272HoGf/vSn9mZdBfqaUfaBBx6w+1abiVbblN+9qqSuYUrXj9das9AStAPxJS0zSfPFxX02QHqaU4pzTDNnjh071k0O9fvf/94ceuihbnKoZ555xgZPcal/s4IpZFOjT5iNnsH2e9/7nnnyyScr67ph9+mnn7bLuuIitWai1Y3TGof+5Zdftvvpr9Y1CtIPf/hDu1+1WWgJ2oH4kpaZpPni4D4bIF3pl+Kcu/7666u2UIaZMWOG+drXvuYmh1KgtPvuu7vJoRYvXmxbRpFNjT5hNnoGW80Su379+sq6xsD3Jq7yxv+vNRPtddddZ5e/+93v2v28KcV1H0TQLLQE7UB8SctM0nxRFeE+GyDr0i3FBaCA5Dvf+Y6bHGr69Onm8MMPd5NDqbVzjz32cJNDKYhS6yuyKelstdUeac5gG7ReaybaDz/80P5g7Nq1q3njjTfsX131WblyZeAstO5rAQiXtMwkzRdVEe6zAbIu3VJcAGoNOOmkk9zkULr8d8QRR7jJoR5//HFb8cWl8cZ12RHlkNYMtkHrQTPRfv/737fr+sGpv//zP/9j04NmoXVfC0C4pGUmab6oGn2fjfrEDxs2zKapkSDs3php06aZoUOH2vtwvLpR3QJHjhxpB2lQA4JGZhs/fnzl+f28+3B0H5ubR/OuiPdaUe4BAtKQbikuAF3i19jkcany+sY3vuEmh5o7d675yle+4iaHeuutt2xlhnJo1Ay2buActB40E61a/TW5l9LUkv7mm29ulMedhdZ9LQDhkpaZpPmiavR9NuoTr2514gXaQffGqFvOrFmz7LLqO1EjgoZt1jwm6pajbQqsg+7DqZXH/1pR7gEC0pBuKS6AiRMnmlNOOcVNDqUKp9asoUEU2Hz1q191k0OpW4JXsaD4GjWDrXfSibIeNBOt6IZt7fvNb36zkhY0C637WgDCJS0zSfNF1ej7bDQimifKvTHapjpKy959OPLUU0/ZUa8GDx5st7Vv3z7wPpxaedzXCrsHCEhDuqW4AH75y19WCnYc6t/nD16ievjhhystkXHMnz+fX/glwwy2QPkoMEwiab6o9+MosG3kfTYKij1x7o3xr+sKn5bVFeaJJ56obAu6D6dWHve5o6wDjcbRFeLaa681p512mpsc6je/+Y0d3iquP/7xj2afffZxk0PpUqPX8oDyYAZboFySBoVp50vrPhuJc2+Mf13BuJdPD/+2WvfhBOUJeq1q60CjcXSF0K/u008/3U0Odeutt1atkMLMmTPHVn5x/fOf/7RBGsqHGWyB8kgaFKadL637bCTOvTH+dS/Ynz17trniiivabKt1H05QnqDXqrYONBpHVwjdcKd+vHHpRpZvfetbbnIo3aWuO9fjUiurxswGABRX0qAw7Xxp3Wcjce6N8a9r6GXdIKsZWb1+6/59q92HE5THzR+2DjQaR1eIn//85+ass85yk0NpSKhvf/vbbnKomTNnmlGjRrnJoV566aXK8HsAgGJKGhQ2Ix/32QDpil4aS0rTtJ999tluciiN9Xrccce5yaE0xqvGu41Lk1RoGCsAQHHFCaL9mpWP+2yA9MQrjSWkiRPOPfdcNznUDTfcYC+9xXXfffeZgw8+2E0O9dxzz5nPf/7zbjIAoEDiBtGeZubjPhsgHfFLY8n85Cc/Meedd56bHOr66683J554opsc6ve//7055JBD3ORQf//7380Xv/hFNxkAUCBJgmhpdj4AjUdpDKFLfJoyOS5dIvzOd77jJoeaMWOGOeyww9zkUH/9619tP0EAQHElDaKbnQ9A41EaQ2jIJ2/81jjUf+/kk092k0PpzvXDDz/cTQ71zDPPmN12281NBgAUSNIgutn5ADQepTHEj370IztGbFyaOOKUU05xk0Pp7vsjjjjCTQ719NNPm913391NRo599NFH5o477rAz82koNZ08NQyZxvHXmMjLly93swAouKRBdLPzAWg8SmOIH/7wh+Z///d/3eRQv/zlL813v/tdNznUtGnTzDe+8Q03OdSTTz5pvvSlL7nJyKmlS5ea4cOHmz333NPceeed5t1337Xp+qtZBzXbrgJ5/cgDUB5Jg+hm5wPQeJTGEJdffrm5+OKL3eRQ1157rTnttNPc5FBqWT366KPd5FCPP/64+fKXv+wmI4fUwq6A/cwzz7TLtWgSE43OMGXKFHcTgIJKGkQ3O19cXFkEwjWnNObYpZdear7//e+7yaFUyZx++ulucqjf/OY35phjjnGTQz322GNm2LBhbjJy6Pbbb7ct7EEBu0eTmGhMZI3TD6D4kgbRzc4XB1cWgWjSL405d8kll9hHXFdffbVtKY3r1ltvNccee6ybHErj3+61115uMnJIk2vdddddbnJNGuFIYyK71q5day688EKz7bbbmq5du5qRI0ea+fPn223r1q0z559/vp2uu3fv3naEJKWJTtJ6aIKw7t27mxEjRpglS5b4nxpAiyQNopudL6pGXVm85ZZbTP/+/U2nTp3MoYce6m5uw6vjooq7f1w6f++9995uMrCR9I7CglAru1rb4/rZz35mzjrrLDc51K9//WvzrW99y00O9cc//tHss88+bjJySIG019IUxeuvv24nL3Fddtll9kQzceJEM2fOHLusliwZP368XdcN0zfeeKNd9rqBeScoTTeuvFpOMhISgMZLGjw2O19UjbqyuOmmm9r3+vbbb5sPP/zQ3dxG2kF4XFl7P8gujpIQCmTUrz0uzaR6zjnnuMmhbr75ZvPtb3/bTQ6loEx9/5B/HTt2tK3kUa1evdpsttlmbrKdMlwngmXLlrmbzIABA+w2taBrSnEtb7fddnabdwJZuHChWbx4sV1Waz2A1ksa3DU7X1SNuLLo1Vn+4FeNGbq62K1bN1s/DhkyxDz00ENt9tfQzH379rXnzkWLFrXZpr71XpdT//MGXcGM8poabGLo0KH2ddX1p9p7D7oSinJLtzQWgEaO0QgycV155ZWJZlJVl4Tjjz/eTQ41a9YsW1kgH9TtxK2s9VAw3aNHDxswRzVv3jzTp08fN9meNPSc69evdzdVtvkfHTp0sNu8dZ0k9NCyLjkDaD0vsIur2fmiatSVRa/e8uyxxx62y8yqVats1xptU6Ds31eDRXhXE8eOHdtmm/rWe90C/c8ddAUzymuqG5DO11pWdx73+SXoSijKLd3SWAAao11jtcel1gD9Uo7rhhtu2KgVIYoHH3zQjBo1yk1GRvkraJdafdQCE5Uq9mr3QXgt7Wotd+mkp20ffPCBu6lyAnnrrbcqLe3eiQdAawXVHUGanS+qRl1ZdANfeeqpp+wV78GDB9tt7du3b7OvWte9Ok4t2v5t7733XuV5/M8ddAVTwl5TPwTWrFljl9u1a9dmmyfoSijKLd3SWACaDVWzosaVdCbV6667znznO99xk0MpyDvooIPcZGSUv4J2aeShakF4Nar81VqjG5lcuoFarzNhwgQ7upCW1RIk+jGq9WuuucY8+uijdtm7Eco7gagfu2760nKS4UsBNF5Q3RGk2flqXU10HwpqG3Fl0Xs+j+o2raubyxNPPNFmu7esq5Du1UT/No8/b9AVzCiv6QnaFnQlFOWWrDSWiPqSqdU8rqQzqSpISnLT37333msOOeQQNxkZ5a+gXWr91vBmurwaRjeLHnXUUW6ypYBeLT56LvW93H///e2NXKLWqlNPPdVstdVWpkuXLvYH3zvvvGO3eScJdfHaYost7BUcDckGoPWC6o4gWc3XqCuLbuCrOk/rqk/18G/3ltXSrtZsLbvdWPz8aUFXMKO8pidoW9CVUJRbtFJVYuqX/pOf/MRNDqV+8P/v//0/NzmUKqRTTjnFTQ41Y8YMc9hhh7nJyCj3pODSeMQa3swLsl0KyBWw77LLLvbyaSO5JxAA2ZG0bGY1X6OuLLr1lhf4zp492175rhYka4Q372qiGjGqPY+bFnQFM8prVnvOLbfc0i57XXKCroSi3KKVqhI799xz7UgwcelmlSQ3jvzyl7803/3ud93kUNOnTzdf//rX3WRklHtSqGbq1Kl2eDNd6XnllVds2muvvWZHPFBrj1rYGx2wi3tyAZAdSctmVvM16sqiW2/pnKibXDWrqgJy/3ZvWfOiqI7VcMley7n7PG5a0BXMKK9Z7Tn1PnTF07svLehKKMotWqkqsbPPPttcddVVbnIoje3+gx/8wE0Ode211ybqP6yW2SOPPNJNRka5J4VaXnzxRXtjslrdlUctOWPGjKna0gSg+KLWHa4s52vllUUgT6KXqpLS5bOf//znbnIoBexJJmXSpcLTTz/dTQ6l4alqtUAge+Kc0ADAk7TuyHq+Vl1ZBPIkXqkqoTPOOMNcffXVbnIodY1RF5m49ANB47jGpVnlvvnNb7rJyKi4JzQAkKR1Rx7ycWURCBa/VJWMWr11M0hcugk1yaRM6oqjLjlx3XbbbZFv5kHrJTmhAUDSuiMv+QDURqkKof7l6mceV9JJmTTMnm5+jevXv/61+da3vuUmI6M4oQFIImndkZd8AGqjVIXQSC4a0SWupJMyJZ1J9Ve/+pX59re/7SYjozihAUgiad2Rl3wAaqNUhdCY6RMnTnSTQynwTjIpU9KZVG+88UZz/PHHu8nIqCgntI8++sjccccddnY9DS+mPBpKTJOR6Ibl5cuXu1kAFFyUuqOavOQDUBulKoSGmdLd63FpUiZ1dYlr/PjxiWZSvf76682JJ57oJiOjwk5omoF0+PDhZs8997QjA7377rs2XX81e+Do0aNtIK+h0gCUR1jdUUte8gGojVIV4qSTTrIzpsWlyReSTMqUdCZVDZel94p8CDqhqYVdAbtGEdJyLZqMRKMsJDk+AeRTUN0RJC/54uKKJMqkOaUqx77zne+Y6667zk0OpfHdf/azn7nJoTRM5Pe//303OdSkSZPsVQHkQ9AJTcN3qoU9KGD3aDISjW38wgsvuJsAFFBQ3REkL/ni4Iokyib9UpVzGjNWXU/iUitpkvHdL7nkEvuISzfLatpj5EPQCe3AAw80d911l5tck+6d0HHq0mvooRaoYcOGtUlz95HXX3/djBw50nTr1s1sttlmZsiQIeahhx6q7Aug9YLqjiB5yRdV1q9IunVtLVH3A4QjJcTYsWPtTZ5xaXx3XZqLS63sSSZl0rCU3/ve99xkZFRQJd2zZ89Ki1EUCrY1CYnLOxmoBWrJkiVt0tx9ZI899jC33HKLWbVqlT3RKb1v376VfQG0XlDdESQv+aLK+hVJt66tJep+gHCkhDjuuOPMTTfd5CaHSjq+e9JJmfQDQbO3Ih+CKumOHTuatWvXusk1rV692raMu7yTwXvvvbdRWq31p556yt6PMXjwYJvevn37yjYArRdUdwTJS76oGn1F8uabbza77bab6dWrl70fTZMqKtBXw8UDDzxg9123bp2tH7faaiu7n2Y+9340LFq0yPaj1/4avMJftyqfRpRTg0zv3r3NBRdcYNP8rx/2/ICkW6oKQGOfqzDHlXR8d40coxFk4lL/efWjRz54FbX7GDBggOnRo4dZuHChm6WmefPmmT59+rjJledcv379RmmyYcOGNus6SWlZ3WmeeOKJNtsAZEPSMpmXfFE1+oqkrlQ/+eSTlXV1N3366aftsrrXyOWXX27XVVeq+6uWNYu56Kq81nV/mfL660+d071tunKvZQXk/tcPe35A0i1VBaBZRtVlIC6N764CGlfSSZnUMqBf6MgHr5KuRq01uokqKh1nxx57rJvc5mTgUcu50tSis3jx4jb7dO3a1S5/8MEH9lEtP4DWSlom85IvqkZfkVQXQjVweOtqOVc9qeV27drZffv161fZpoYVLQ8cONBuUwu61pctW2a3++tPNcZ4r7FixQq7vN1227V5/bDnByTdUlUAY8aMMbfeequbHOrkk09ONL570kmZfvKTnySaSRWt4VXS1airU7UgvJo1a9aY/v37m0ceecTd1OZk4Nl+++1t2pw5c+x9F/591Aql5dmzZ9sfjtXyA2itpGUyL/m6d+9eqXuCHmqAaOQVySjr+qGgZQXzXkDfuXNnu61Tp052XYG/P/gX/Vhw33+HDh1iPT8gyUpViWjIqNtuu81NDqWhIjV2elznnntuokmZ/u///i/RTKpoDf9JwaVWbg1TpptBw2iYz6OOOspNtvwnA48Ccl1W3nHHHc3cuXPb7DN9+nS7TWMcu5d3AWRD0jJZtHxpXZEMWlc3GS2rJXzBggV2edCgQXabfhBoXa3p6rbjz+c1iKhud0V9fkCilY4SO+aYY+xd6nFpdtIkQ0WeffbZifqwJZ1JFa3hPylUo3GFVYFr1INq1MKugH2XXXaxl1sBlENY3VFL0fKldUUyaF3nWC37+5xrWVQfa33ChAl2UIha+R599FG7vPfee8d6fkCilY4SO/roo+1sa3HpppQbbrjBTQ6lMWd//vOfu8mhdANLkplU0Rr+k0ItulKj0QvUXeqVV16xaa+99prtdqVuLmphJ2AHyiVK3VFN0fKldUUyaF3BvwJyb3SXSy+91N7QL2phHzFihO3eo8Ddn0/96XX1Uvm6dOliDjroIPPOO+/Een5AopWOElNBnzZtmpscKulQkUnHd1fh/sEPfuAmI6OinphefPFFO0yZd9lUl1l1n0W1FiMAxRe17nAVMR9XJFE20UtHSR155JGxxoL1JB0qMun47grYFbgjH+KcmADAk7TuKGo+rkiiTOKVjhI64ogjzN133+0mh0o6VGTS8d3VNUZdZJAPcU9MACBJ644i5+OKJMoifukomcMPP9yOqhGXbpBJMlRk0vHdk07KhNZIcmICgKR1R9HzAWVA6Qjxta99zcyYMcNNDqWhIn/zm9+4yaE0vvuUKVPc5FAa7lHDPiIfODEBSCJp3VH0fEAZUDpCHHrooeaee+5xk0N985vfTDRUpMZ3v+6669zkUJpYSRMsIR84MQFIImndUfR8QBlQOkIccsgh5t5773WTQ+nmlzvvvNNNDqV+eUmGijznnHPMT3/6UzcZGRXlxPTRRx/Z4UYPOOAAO7SZ8mjiI00qohGGli9f7mYBUHBR6o5qip4PKANKRwiNp3rfffe5yaG+8Y1vJBp15vjjj080VORZZ51lfvazn7nJyKiwE9PSpUvN8OHDzZ577ml//GmGPdFfzQKo7lcK5DXkGYDyCKs7ail6PqAMKB0hDjzwQPPAAw+4yaE06kySgCrpUJGakCHJ+O5ojaATk1rYFbBroi0t16JJRTRaQpJ7IADkU1DdEaTo+eLiSibyqDmlI8dGjRplHnzwQTc5VNJRZzRU5K9//Ws3OdT3vve9ROO7ozWCTky6F0It7EEBu0eTimiM4hdeeMHdBKCAguqOIEXPFwdXMpFX6ZeOnNt///3NrFmz3ORQSUedSTpUpKZITjK+O1oj6MSkqztxulZpUhHdC+HSa+ihGX2HDh1q+vbta09I/m3uvv5lXfHZbbfd7HTaul/immuusT8Q9Dze1ad169bZm6B79uxpevfubS644AKb5n8etWQNGzassr/uv/Cm6b744osj/TgB8LGguiNI0fNFxZVM5Fm6paMA9ttvP/PQQw+5yaE06szvf/97NznUMccck2ioSE3VnGR8d7RG0IlJAbDX8hPF66+/bicTcXlBs05O+uGp5f79+7fZ5u7rX9bVmyeffLKyrh+GTz/9tF3WyUw0N4DWdezdeOONdlmBuP951JK1ZMkSm6YJwJSmHwBXX321Xb7qqqs+fhMAQvnLbRxFzxcVVzKRZ+mWjgJQ/7Y5c+a4yaEOPvjgRKPOHH300bafXVwnnXSSnc65WegPWJ+gE1PHjh3N2rVr3eSaVq9ebTbbbDM3uRI0K2Bes2aNXW7Xrl2bbe6+br7169dX1hctWmRbyv3PM2DAgMq+mipcy9ttt12b53nvvfcqr9OvX7/Kcy1cuNAuDxw4sLIdQDB/uY2j6PmiatSVTDWWjBw50nTr1s3Wv0OGDKk08Hl1X7WrnFxtRD3SLR0FsM8++5g//OEPbnIoVQxeIY1Do86ooMd14oknmuuvv95NTgX9AevnVeruQ0Fwjx49bEAb1bx580yfPn3c5MpzVlv3L2/YsKHmtrB1nay8de/RoUOHNvsp8PfoB4nSdOLyfgB07ty5sh1AMH9ZjKPo+aJq1JXMPfbYw9xyyy1m1apVtiuN3reCc/HqvmpXObnaiHqkWzoKQMHpww8/7CaHUgt0khtYk446o6Ei1T0hbVnrD+hVjnkT9J51tSLODz51TdG9EC73s/Gvt2/f3i4rcF68eHGbbUH53HWdzLT8wQcfVLZ73HyiY0JpamlfsGCBXR40aFCbfQDU5papqIqeL6pGXcmUp556yraaDx482L5v1avi1X3VrnJytRH1SLd0FMBee+1lHnnkETc5lG5gnTlzppscKumoMxoq8le/+pWb3HBZ6w9YLTDMg6D3rO5F1YLwanRCUAtOtWPU/Wz869tvv71dVtev008/vc22oHzu+kUXXWSX1Wr06KOP2uW99957o/08/v29ViYtA4jGLVNRFT1f9+7dK3VO0EOBdSOuZKre0vOpge6JJ56oPL/4l911rjaiHslKR4l89atfNY899pibHCrpDayHHXZYolFnkg4VGVej+gNGGXWkWn9AtU6oJVppkydPblMZRnlOdySTWvurJebCCy802267renatavtuzh//vxKvqA+iZdccklluRZ/he5Sq7W6F+lqRRjdgKzZd6sJOnHMnj3b/t877rijmTt3bpttQfncdbVC6QZVfRZdunSxk5G98847G+3n0Y8MzSngfXaXXnqp7Z4DIBq3TEVFvo816kqmzgt6TdXXevjrO7fu869ztRH1iHaUl9hXvvIVG9TElfQG1kMOOSTRqDOqVG677TY3ueEa1R8wyqgj1foDjh07tpJPwaK/MozynP6RTIL2v+yyy+z6xIkT7feoZV1hkLA+iVoPC9y991yLukipctfVimoU/Cpg32WXXewNoADKIazuqIV8H2vUlUyva6AaQK644gq77L0H/7K7ztVG1CPaUV5iX/7yl83jjz/uJodKegOrRp2577773ORQ3/zmN23XlbQ1qj9glFFHqvUHVIu41pctW2ZbKvyVYZTn9I9kErS/131Er+MK65PovVZQ4O695yAaDUjdi3S14pVXXrFpr732mr3CoPenFnYCdqBcotQd1ZDvY426kqlurGrE0qhpbgOSf9ld52oj6hHtKC+xL33pS7a/Wlzq15vkBlZ1P/EmrolDFYtakeOK2g9Qj0aObBJl1BGPf71Tp052WSOS+IcjjPqc/pFMgvb3tvn394T1SfSeS0G7+/z+RxQvvvii7V7kXVJV686YMWOqtvwAKL6odYeLfP/FlUzkVfSjvKQ0rJPuEI9LN7Dqxry4Ro0alegG1iOPPDLRqDNxKjppVH/AOKOO+Nf1A0DLah1XNx3/tjjPKUH7ey3tGlnFFdYnUetBrezivhcAiCJp3UG+triSiTyKd5SX0O67725ngYxLNzsmuYFVNzwmuYH161//eqJRZ+JWdI3qDxhn1BH/ulo/tDxhwgR7idG/Lc5zhu3vtZLrdfQ9alk/4Nx81fokhgXs4r4XAIgiad1Bvo1xJRN5E/8oLxmNXvLMM8+4yaHUF/5Pf/qTmxwq6Q2sSUediVvRNao/YJxRR/zramEfMWKE7dajgNq/Lc5zhu2vHxwaIUb/q0YJ0BCe3qXURvRJdN8LAESRtO4gH5B/HOUhdt1110gBqksjjSTpC68bWP/4xz+6yaE06sy9997rJodKUtHRH7B+ST53AEhad5APyD+O8hAKPP/617+6yaGS9oVPegOrWonj9DX3JK3o6A9Yn6SfO4ByS1p3kA/IP47yEF/84hfN3/72Nzc5VNK+8JrMKekNrA8++KCbHKqeio7+gMlF+dw1YdMdd9xhJ4RSNx3l0fBi6kKlewuWL1/uZgFQcFHqjmrIB+QfR3mIIUOGmH/84x9ucqikfeGTTuakG1g1EVFcVHStEfa5L1261AwfPtx2s9JQnt6EVvqrKyqjR4+2gXySEYMA5FdY3VEL+YD84ygP8fnPf94899xzbnIo9YV/9tln3eRQCtKSTOaU9AZWKrrWCPrc1cKugF0zwmq5Ft1roascU6ZMcTdZeo2g16klaT4A6UtaNskH5B9HeYjBgwebF154wU0OtfPOOyfuC//kk0+6yaGS3sBKRdcaQZ+7ZrbVj7eggN2jm4F1b0G1Y5TgGyiepGWafED+cZSH2GmnnWzf7bjUF/7vf/+7mxwqaV94TeaUpC85FV1rBH3umhX3rrvucpNr0s3AurfA5QXtujm4b9++9mqMJoSS119/3Xap6tatm539Vd3AvPkB/MG+t6x+9Zp7oFaaZobVEJneMJgXX3xxpB8dAOIJqjuCkA/IP47yEJrp8qWXXnKTQ33hC19I1K1mt912S9QXPulkTlR0rRH0uffs2bPShz0KBeC6CdjlBdennXaamThxol0eO3as3aYrOrfccotZtWqV7WajbQrs/fn8y+pXrzHya6VdfvnlNs0/4dRVV11ltwFonKC6Iwj5gPzjKA8xcOBA8/LLL7vJodSt5vnnn3eTQyXtC6/JnJL0haeia42gz71jx45m7dq1bnJNmiRKreUuL7hW6/rixYvtcu/evSvbNSSpWsd1rGpb+/bt2+TzL7/33nuVfNXS+vXrV3mthQsX2mWVHQCNFVR3BCEfkH8c5SF22GEH8+qrr7rJoZJ2q1Ff+CRDTH7pS19K1Beeiq41vMDXfQwYMMD06NHDBr5RzZs3z/Tp08dNrjzn+vXrbfcVLXfq1MluU4u41tXFRZOAefv687nPUe15PfqhoTS9jvdanTt3rmwH0Bhe2YyLfED+cZSH0ERB//znP93kUEm71SQdYjJpX3gqutYI+tzV9zzORFmTJk0yxx57rJtcCa7V+q1uLFr2usB07drVrn/wwQf24e3rz+cue6qleWP167UWLFhgl1UGyoDx9NFMbtmLinxA/nGUh+jfv7/tMxxX0m41GmIySbeapH3hqehaI+hzV6BXLQivZs2aNfYYrXYTshdcn3XWWXZYSC2feuqpdpv6wGt99uzZ5oorrqjs68/nLnuqpV100UU2zd+nXctFx3j6aDa37EVFPiD/OMpDqK+uhtWLS90cknSr+dznPpeoW80uu+ySaIhJKrrWCPrc1fKtQE83iIYZN26cOeqoo9xkywuub731VjsspIYFVd92mT59ur3hVS3CCuT9gXitZU+1NP14OOOMMyqjx1x66aVmw4YNbfYpmkaNp59Hf/rTn+wPFd1Loe9boxd5IxMhXW7Zi4p8QP5xlIfQyXb+/Plucih1q3nttdfc5FBJu9UkHWKSiq41wj53tczq2Kv1g1FBsgJ2/VhbsWKFuxlN0Kjx9PNG99zo3ohRo0bZKw3qGqTjee+993Z3RQrC6o5ayAfkH0d5CPUB/ve//+0mh9puu+1qBlxB1K3mlVdecZNDJZ25lYquNaJ87lOnTrWBnsZh944J/RDUuOv6UagWdgL21mn0ePrTpk0zQ4cOtXWOd0+Dt83d179888032+5xavH+6U9/arsl6bjR8zzwwAN2X90cfP7559urKxpB6IILLrBp/ueJOu7+kUceafdXa3s1UeYAqGfcf42upf10X8YWW2xhfzzoZuyyiFJ3VEM+IP84ykNoVI4333zTTQ6lVtIkJxJ1q0ly46u61SRpxaOia42on7u6SinQ8270VF/0MWPGVO3DjuZq9Hj66mYza9Ysu6z7FPzb3H39y9/73vfsyFHeuro76aZ0Leu4kfHjx9t13bR844032mUFwv7niTruvkY30vqyZcvsuivKHAD1jPuvEb20rnuGZs6caZf1mmWh/zcJ8gH5x1EeQq1Sb731lpscSifnJC30Olk3s1sNFV1r8LnnX6PH01fAqm5PWm7Xrl2bbe6+bj4Nv+mtq2+5N+ym9zxqDPD21dUZLetqoP95oo67r/H8tR7ULShsDoB6xv3XjyWtqwX/uuuuMytXrqzkKwP970mQD8g/jvIQujT7zjvvuMmh1EL/xhtvuMmhkt74mrRbDRVda/C5Z1f37t0rgWTQQ4FoI8fTr7buX9aNvbW2ha3rx4K37j06dOjQZr+o4+57n0+trllR5gCoZ9x/9aFX1xsvn7rQxOmmlHfeZxkX+YD84ygPodE14lwC99TTQp/0xtck3Wqo6FqDzz27on43jR5Pv9q616qtwNWb1dbbFpTPXfeG+NTIRC43nwSNu3/YYYfZ9T//+c9t8niizgHgqZYW9Pqirje/+93v7JCa2qbAvSzczyoq8gH5x1EeQpdi47SmeZrdQq9L3UnGk6eiaw0+9+yK+t00ejz9auv6Ma7lOXPmmNNPP73NtqB87rp/HP1HH33ULnujvbj53P3dcfc1H4Rawg855BDb3UY3wmq7bj6VqHMAeKqlBb2+RuzR+n333WfntNCyuuGUhftZRUU+IP84ykNoFIYk4w+rhV4tRHElbaFPOjQlFV1r8LlnV9TvptHj6VdbV+CrhoMdd9zRzJ07t822oHzuuvrT6wZVtUh36dLFHHTQQZVGBTefhI27//DDD9uRbhS868bU448/vtInPeocAJ5qaUGvr4EB1Nq/5ZZb2lZ9jZWfZEK6vHI/q6jIB+QfR3mIT33qU5URDeLQiSxJC72CgCQt9BqdIUkLPRVda0T53HWjn/rvqm+wjgvlUSCkbhlq5V2+fLmbBQ0Q5bvxMJ4+mi3O8elHPiD/OMpDqKVHE4jEpRZ6b/bJONRC1cwWeiq61gj73HXMqQVRXQE0FJ53X4X+qh+1+vIqkFfQiMYK+25cjKePZop7fHrIB+QfR3mIT37yk22GIotKIywkDfaTdMdJ2kJPRdcaQZ+7WtgVsGvc7qBh9dQtQ628U6ZMcTeF0uvXeg9B24IkzZc1Sf4HxtNHsyQ5PoV8QP5xlIfQjHvvv/++mxxKwX6tyUeCJO2Ok/SGWSq61gj63G+//Xbbwh4UsHvULUM/9JJMrFVL0uA7ab6sKcL/gOJKenySD8g/jvIQGg84Sd9h3SSVJNhXd5wkwX7S7jhUdK0R9LkfeOCBscadVrcMtfK6NPHPhRdeaLbddlt7w55G9/BuVvYH2Lqyo37yui9CXTr824KmpA/KpyEKzz//fPtjUl23LrjgApuWB0HfDdBqSY9P8gH5x1EeQsFOkv6orQj2k3THoaJrjaDPXYFunLkBFFirO4brsssus68zceJEO2SgltWCL/4Ae+zYsXZZ44i7o30ETUkflG/8+PGVbTfeeKNdvvjii+22rAv6boBWS3p8kg/IP47yEBoeLck02a0I9pP0vaeia42gz13D6KmVPCoN56dWcJc3xne1Kzf+AFst4d5+aj33b5NaU9IH5RswYIBdVlcvlQMtay6BPAj6boBWS3p8kg/IP47yEJtvvrltZYxLU24nDfb/85//uMmhkgb7VHSt4U0F7z4U7MYdLnTevHl2Ui6XN3W9f3p4j/d60qlTp8p+evi3BU1JH5TPe23/o0OHDh+/eMZ5/wOQRUmPT/IB+cdRHkLBh1oy41Kw/+GHH7rJoRTsJ/mRoCsCSYJ9KrrsUT9xDesYlbqgVJuZ02tpr3avgz/AVsCvZbWKq1uOf1vQlPRB+bxZMZUnbygTyLKkxyf5gPzjKA+hrgqaICUutUImyVfPj4QkwT4VXfZo4qRqQXg1Osb69+9fdWjBSy65xH6/EyZMMI899phdVh918QfYmvzH20+zUFYLvqtNSR+Uzz8N/aOPPmqX9957b7st6ygTyLKkxyf5gPzjKA+x6aabJhr1Qvni9Ev2xO3P7NGPhCTBPhVd9qh1WuPu68bPMAqcNXlPNQro1Rddz6UW8/33378yc6c/wFZL+YgRI2yXHQXg/m1BU9IH5dOxqP11g7SuAh100EGJ5hFoBcoEsizp8Uk+IP84ykPoprtqfYLDqP9u0nxJfyQkyUdFl02a6VQT9XhBtksBuQL2XXbZJdENz6iNMoEsS3p8kg/IP47yEO3atTMbNmxwk0PVky/KpDqupPmo6LJr6tSpdvx9jcP+yiuv2LTXXnvNjomu/upqYSdgbzzKBLIs6fFJPiD/OMpDaDSPJJLm22GHHdykSJLmS/o+0RwvvviinThJre46KamP+ZgxY6r2YUdjcPJHliU9PskH5F9pjvJaQ+zxyP9D3y3QKDqmgKxKenySD8i/0hzlFOji0ner1megEagrkGVJj0/yAflXmqOcAl1c+m41nKCGFwTqRV2BLEvapZF8QP6V5uzEibi4vKBd45ID9aKuQDPQZbO4D7psIi2lOTupIKGY9N0StKNRqCvQDBxnxaXvli6bSENpag0qyOIiaEcjUVegGTjOiss7J9FlE41WmlqDCrK4CNrRSNQVaAaOs+LinIS0lKbWoIIsLipINBJ1BZqB46y4OCchLaWpNaggi4sKEo1EXYFm4DgrLs5JSEtpag0qyOKigkS9li9fbm655RZz6KGHmnbt2tm/Wlc6kAbOScXFOQlpKU2tQQVZXFSQSMIfqG+xxRaVQP3tt9+umk4Aj0binFRcnJOQltLUGlSQxUUFiahqBeq1AvK4+wNRcU4qLs5JSEtpag0qyOKigkSQRgXejXoeQDgnFRfnJKSlNLUGFWRxUUHClXaAnfbzo/g4JxUX5ySkpTS1BhVkcVFBQloVSLfqdZFvnJOKi3MS0lKaWoMKsrioIMsrawFz1t4PsotzUnFxTkJaSlNrUEEWFxVkueQlMM7L+0RrcE4qLs5JSEtpag0qyOKigiy+vAfAeX//aDzOScXFOQlpKU2tQQVZXFSQxVTUQLeo/xfi4ZxUXJyTkJbS1BpUkMVVTwU5bdo0M3DgQLu8dOlSc+KJJ5qePXvah5aVFscOO+xgnxPJlC2gLdv/i//inFRc9ZyTgCClqTWoIIsraQW5atUqs80225hzzjnHro8bN84+19SpU83kyZPt8imnnOLkCnb22WfbgF/PjWgIXD/G55Au/w90z9q1a83w4cMTnR/q/YGe5DWRD0nPSUCY0tQaVJDFlbSCnDRpks17zz332HWdhLW+cOFC+9Cye5IXpeuhE/bQoUNN3759zf3332+3TZ8+3W5T0I/aCFCD8fk0lvsDXf7yl7+YYcOGVcpzXPX+QE/ymsiHpOckIExpag0qyOJKWkGOHDnS5n3ppZfs+uabb27X161bZ1vgtNy5c2cn13+D9jPPPNPMmjXLLvfv399ue/755+26nhttEYgmw+dWP/cHumh99913DwzavW1p/ECv9ZrIv6TnJCBMaWoNKsjiSlpBquVNeRcvXmzXN9lkk8pxsmHDBrvcrl07fxbLO5EvWbLErFmzps1+CxYssOtbb721k6ucCDgbi88zGfcHuhx++OH2nhWvPFfjbUvjB3qt10T+JT0nAWFKU2vkvYL0n1iCTjJRPfLII7ZSKYKkFeSmm25q86plXdSq7q1HaWmvtq68WtZzlxWBZXPwOUfn/kD3c8uzn7ctjR/otV4T+afvNsk5CQhTmloj7xVk0IkliUY/XyslrSDVH1V533//fbu+00472XX1Z/dOyEF92qutr1ixwi736tWrsr0MCCBbi88/mPsD3c8tz37uNv96vT/Qa70m8k/fbZJzEhCmNLVGHipIte5eeOGFZttttzVdu3a1l13nz59vt/lPFu6J4/zzz7cBaO/evc0FF1xQOTF5+7n9Mb30qM+TdUkryIMOOsjmffXVV+36ueeea9enTJliH1r2Ro+p9fm767r8ruXDDjussr2oCBSzie9lY+4PdD+3PPu52/zr9f5Ar/WayD99t0nOSUCY0tQaeaggL7vsMvs+J06caObMmWOX99xzT7vNf7LwL48fP94u60arG2+80S5ffPHFbfar1h/T/xxhz5N1eq9JKsgbbrjB5r377rvt+sqVK80JJ5xgevToYR/+cdq1X/v27SvL/s/Ov+7dnHbbbbdVthcJAWG+8H19zP2B7hdUnoO21fsD3f+8KBZ9t0nOSUCY0tQaeaggt99+e/s+ly1b5m6qeSIZMGCAXVafS6/lZ7vttmuzX7X+mP7nCHuerEtaQa5evdq2kukKQ5iZM2eaQYMGuckbOe+880yfPn3s510UBH7FUObv0f2B7ufWhVpuxg90//OiWJKek4Awpak18lBBbrbZZvZ9rl+/3t3U5mThX/by+B8dOnTYaD933d0W9DxZp/eatILUSTxKMH7wwQebxx9/3E3eiJ5rxowZbnLulDnAK4Oyfb9Z/IHur3/zIKj75uuvv27Xu3XrZs8lQ4YMMQ899JDd5p1PDjjgADsufq00dcfUOPpbbbWV/a50pfejjz76+MVzpp5zEhAkX7VGHfJQQXot7WEjHPiXP/OZz9jlDz74wL+75d/PXXe3BT1P1lFBNkbZArk0ueUry8ryvWftB3pejg9PUPfNPfbYwx4zmmhKk1Zpm+6hEq8s3HnnnfZKbq20yy+/3KZdc8015uqrr7bLV1111ccvnjOck5CWfNUadchDBakCrvc5YcIE89hjj9llVYbiDwL8yxdddFGlonv00UcrlYW7n7u+5ZZb2uX33nsv9HmyznuvVJDxlSVgQzQcD83jr5vzIKj7pjz11FO2pXzw4MF2P7eLkXeuqZXWr18/m7Zo0aLAGanzgHMS0pKvWqMOeaggdZlVld6nP/1pe/lx//33N//617/sNq+Sc5d12ffUU0+1lxS7dOlib7h65513NtrPXb/11lvt/qNGjQp9nqyjgoynqIGZd3zfdNNNpnv37mbEiBGVVrygS+/PPvusvUSvMqfPQ2Vi3rx5oduCype7LY+KepxkRd6Oj6Dum2rs0TZ1d3niiSeqlgV/vmppHTt2tGkqq95wmtXmycgDvXfOSUhDvmqNOuStgkR0/grSOxm0+qGgMUvKEIB5n/24cePsJXwtn3zyyXZb0KX3HXbYwa6//PLLtj+zlr0rXEHbvNfz+NfdbXlXhuOn2fJ2fAR139SPWm1T90o9wspCtbTPfvazNk0t7d48GVG6M2WR3jtBO9KQr1qjDm4FgeLIYgWpoN07MWXh4U0us99++5m3337bfbuF4P2vurSuwELLumlOgi69e2N46+a56667zg796Qna5r1etXV3W5Ho+NFx5D+ueMR7eKN15UlQ903vnqjZs2ebK664ovJ/in/ZUy3N30XT+2Gt5TzSe8/aOQnFkK9aow5uBYHioIIMV4aWUi8Q8F9e79Spk90WdOn9jjvusKNeePnVheauu+4K3eYPPDZs2NBm3b9cBGU4fpotb8dHUPdNDX+pH7jbbLON7WYZVhaqpen5zzjjjEoXtksvvdSWqzzS/8Y5CWnIV61RB7eCQHFQQcZT1ADMCwTeeuutSku7N4JF2KV3jXrxu9/9zowePdpuU+AQtk032mldPwK81/PqmWpBSd4U9TjJirwfH6iNcxLSUppagwqyuKggkytSYOYFyurHPmXKFLt82mmn2W1Bl941bJ3W77vvPvP888/bZY2AEbbN6+Or4e9OP/30NoG6fzlPinQ8ZF0ejw9EwzkJaSlNrUEFWVxUkI2R94DNC5SvvPLKykgvS5cutduCLr2/+eabdip6DYOqy/7Dhw+3AXrYNvXfVZeAHXfc0cydOze3QXvev/e8ysvxgfg4JyEtpak1qCCLiwqy8fIYyOUpUG61PH6/RcOxWlyck5CW0tQaVJDFRQWZrrwEeATtwfLyPZYFx2pxcU5CWkpTa1BBFhcVZPMQ+OUL31d2cU4qLs5JSEtpag0qyOKigmwNAsJs4nvJB85JxcU5CWkpTa1BBVlcVJCtR6DYWnz++cM5qbg4JyEtpak1qCCLiwoyWwggm4PPOd84JxUX5ySkpTS1BhVkcVFBZheBZWPxeRYH56Ti4pyEtJSm1qCCLC4qyHwg4EyGz62YOCcVF+ckpKU0tQYVZHFRQeYPgWgwPp/i45xUXJyTkJbS1BpUkMVFBZlvBKgf43MoF85JxcU5CWkpTa1BBVlcVJDFUbbAtWz/L/6Lc1JxcU5CWkpTa1BBFhcVZDEVNaAt6v+FeDgnFRfnJKSlNLUGFWRxUUEWX94D3by/fzQe56Ti4pyEtJSm1qCCLC4qyHLJSwCcl/eJ1uCcVFyck5CW0tQaVJDFRQVZXlkLjLP2fpBdnJOKi3MS0lKaWoMKsrioICGtCphb9brIN85JxcU5CWkpTa1BBVlcVJBwpR1Ip/38KD7OScXFOQlpKU2tQQVZXFSQCNKoALtRzwMI56Ti4pyEtJSm1ujevbstSDyK99B3SwWJKOIG3nH3B6JS3YVi0nfLOQlpKFWtMWbMGFuQeBTvse+++1JBIpZaAfnbb79dNZ1AHY1E0F5cBO1IS+lqjWuuucYWJB7Fe1x22WXu1w1EUiuAJ1BHWgjai4ugHWmh1gAAoMnoslncB102kRaCdgAAWoAum8V90GUTaSBoBwCgReiyWdwHXTbRaATtAACgKdR9BEAylB4AANAUBO1AcpQeAADQFATtQHKUHgAA0BQE7UBylB4AANAUBO1AcpQeAADQFATtQHKUHgAASmjatGlm4MCBdnnp0qXmxBNPND179rQPLSstjh122ME+ZxCCdiA5Sg8AACWzatUqs80225hzzjnHro8bN84G1FOnTjWTJ0+2y6eccoqTK9jZZ59tA349dy0E7UBylB4AAEpm0qRJNoC+55577LpaybW+cOFC+9Cy1wrvp3Q91KI+dOhQ07dvX3P//ffbbdOnT7fbFPTXQtAOJEfpAQCgZEaOHGkD6Jdeesmub7755nZ93bp1Zu3atXa5c+fOTq7/Bu1nnnmmmTVrll3u37+/3fb888/bdT13LQTtQHKUHgAASkZdYxRAL1682K5vsskmlYB6w4YNdrldu3b+LJYXtC9ZssSsWbOmzX4LFiyw61tvvbWT678I2oHkKD0AAJTMpptuWmlZF7Wqx2lpr7auvFrWc9dC0A4kR+kBAKBkdMOoAuj333/fru+00052Xf3ZvRbzoD7t1dZXrFhhl3v16lXZ7iJoB5Kj9AAAUDIHHXSQDaBfffVVu37uuefa9SlTptiHlr3RY/yBeVDQrv7xWj7ssMMq210E7UBylB4AAErmhhtusAH03XffbddXrlxpTjjhBNOjRw/78I/Trv3at29fWa4VtHujx9x2222V7S6CdiA5Sg8AACWzevVq243l/PPPdzdtZObMmWbQoEFu8kbOO+8806dPH3uDai0E7UBylB4AAEpIrexRgvGDDz7YPP74427yRvRcM2bMcJPbIGgHkqP0AACApiBoB5Kj9AAAgKYgaAeSo/QAAICmIGgHkqP0AACApiBoB5Kj9AAAgNR1797dPgAkQ9AOAABSRys7UB9KEAAASB1BO1AfShAAAEgdQTtQH0oQAABIHUE7UB9KEAAASB1BO1AfShAAAEgdQTtQH0oQAABIHUE7UB9KEAAASB1BO1AfShAAAEgdQTtQH0oQAABIHUE7UB9KEAAASB1BO1AfShAAAEgdQTtQH0oQAABIHUE7UB9KEAAASB1BO1AfShAAAEgdQTtQH0oQAABIHUE7UB9KEAAASB1BO1AfShAAAEgdQTtQH0oQAABIHUE7UB9KEAAASB1BO1AfShAAAEgdQTtQH0oQAABIHUE7UB9KEAAASB1BO1AfShAAAEjF8uXLzS233GIOPfRQ065dO/tX60oHEA9BOwAAaBh/oL7FFltUAvW33367ajoBPBANQTsAAKhLrUC9VkAed38ABO0AACCBRgXejXoeoOgI2gEAQCRpB9hpPz+QZwTtAACgplYF0q16XSCrCNoBAEAbWQuYs/Z+gFYgaAcAALkJjPPyPoFGI2gHAKCk8h4A5/39A3EQtAMAUCJFDXSL+n8BHoJ2AAAKrmwBbdn+X5QDQTsAAAVE4PoxPgcUBUE7AAAFQYAajM8HeUbQDgBAjhGIJsPnhrwhaAcAIGcIOBuLzxN5QNAOAEAOEFg2B58zsoqgHQCAjCKAbC0+f2QJQTsAABlCoJhNfC9oNYJ2AABajIAwX/i+0AoE7QAAtACBXzHwPaJZCNoBAGgSArxi4/tFmgjaAQBIEYFc43ziE5+wjzzge0ej5ePIBwAgRwjY4MfxgEYgaAcAoAGKGph5rds33XST6d69uxkxYoRZsmSJ3bZu3TpzzjnnmK222sr06tXLXHzxxeajjz6y25599lkzbNgw07VrV/t5jBo1ysybNy90m9ua7l93t+VRUY8TpC/fRz4AAC1UhgDMC5THjRtnJk6caJdPPvlku+3yyy+369dcc425+uqr7fJVV11lt+2www52/eWXXzYzZ860y3vssUfoNjcwL1rQ7leG4weNU5wjHwCAJvvsZz9rg8j99tvPvP322+7mQvAC5YULF5rFixfb5W233dZu69evn11ftGiR3a7lgQMH2m09e/a060OGDDHXXXedWblyZeU5g7a5gXmRg3Y/HT86jvT/6bgCXMU88gEAaIIytJR6gbK6wuih5U6dOtltHTt23Ghb586d7bY77rjDdOvWrZJfXWjuuuuu0G3+wHzDhg2FDtrLcPygcYpz5AMA0EJFDcC8QPmtt96qtLT37dvXbvOuNKilfcGCBXZ50KBBlbyrVq0yv/vd78zo0aMrwXnYtvbt29t1/QjwXq9IQXtRjxOkL99HPgAAGVSkwMwLlNWPfcqUKXb5tNNOs9suuugiu+7v065l2XPPPe36fffdZ55//nm7PHjw4NBt22+/vV2fM2eOOf300wsRtBfpeEDr5O/IBwAgR/IesHmB8pVXXlkZ6WXp0qV225o1a8wZZ5xRGT3m0ksvtV1a5M033zSHHXaY2XLLLe0oMcOHD7cBeti22bNn2z7vO+64o5k7d25ug/a8f+/Innwc+QAAFEAeA7k8BcqtlsfvF/lBKQQAoAXyEuARtAfLy/eI/KMUAgDQYgR++cL3hVYgaAcAIEMICLOJ7wWtRtAOAEBGESi2Fp8/soSgHQCAHCCAbA4+Z2QVQTsAADlDYNlYfJ7IA4J2AAByjIAzGT435A1BOwAABUEgGozPB3lG0A4AQAERoH6MzwFFQdAOAEDBlS1wLdv/i3IgaAcAoESKGtAW9f8CPATtAACUVN4D3by/fyAOgnYAAJCbADgv7xNoNIJ2AADQRtYC46y9H6AVCNoBAEBNrQqYW/W6QFYRtAMAgEjSDqTTfn4gzwjaAQBAbI0KsBv1PEDREbQDAIC6xA284+4PgKAdAAA0UK2A/O23366aTqAOREPQDgAAUuEP4Nu1a0egDtSBoB0AAKTuE58g5ADqQQkCAACpI2gH6kMJAgAAqSNoB+pDCQIAAKkjaAfqQwkCAACpI2gH6kMJAgAAqSNoB+pDCQIAAKkjaAfqQwkCAACpI2gH6kMJAgAAqSNoB+pDCQIAAKkjaAfqQwkCAACpI2gH6kMJAgAAqSNoB+pDCQIAAKkjaAfqQwkCAACpI2gH6kMJAgAAqSNoB+pDCQIAAKkjaAfqQwkCAACpI2gH6kMJAgAAqSNoB+pDCQIAAKkjaAfqQwkCAACpI2gH6kMJAgAAqSNoB+pDCQIAAKkjaAfqQwkCAACpI2gH6kMJAgAAqSNoB+pDCQIAAKnr3r27fQBIhqAdAAA0Ba3tQHKUHgAA0BQE7UBylB4AANAUBO1AcpQeAADQFATtQHKUHgAASmjatGlm4MCBdnnp0qXmxBNPND179rQPLSstjh122ME+ZxCCdiA5Sg8AACWzatUqs80225hzzjnHro8bN84G1FOnTjWTJ0+2y6eccoqTK9jZZ59tA349dy0E7UBylB4AAEpm0qRJNoC+55577LpaybW+cOFC+9Cy1wrvp3Q91KI+dOhQ07dvX3P//ffbbdOnT7fbFPTXQtAOJEfpAQCgZEaOHGkD6Jdeesmub7755nZ93bp1Zu3atXa5c+fOTq7/Bu1nnnmmmTVrll3u37+/3fb888/bdT13LQTtQHKUHgAASkZdYxRAL1682K5vsskmlYB6w4YNdrldu3b+LJYXtC9ZssSsWbOmzX4LFiyw61tvvbWT678I2oHkKD0AAJTMpptuWmlZF7Wqx2lpr7auvFrWc9dC0A4kR+kBAKBkdMOoAuj333/fru+00052Xf3ZvRbzoD7t1dZXrFhhl3v16lXZ7iJoB5Kj9AAAUDIHHXSQDaBfffVVu37uuefa9SlTptiHlr3RY/yBeVDQrv7xWj7ssMMq210E7UBylB4AAErmhhtusAH03XffbddXrlxpTjjhBNOjRw/78I/Trv3at29fWa4VtHujx9x2222V7S6CdiA5Sg8AACWzevVq243l/PPPdzdtZObMmWbQoEFu8kbOO+8806dPH3uDai0E7UBylB4AAEpIrexRgvGDDz7YPP74427yRvRcM2bMcJPbIGgHkqP0AACApiBoB5Kj9AAAgKYgaAeSo/QAAICmIGgHkqP0AACApiBoB5Kj9AAAgKYgaAeSo/QAAICmIGgHkqP0AACApiBoB5Kj9AAAgKYgaAeSo/QAAICmIGgHkqP0AACAphgwYICbBCAignYAADKke/futkWaR/Ee+m6BpAjaAQDIEAV3KCZ9t2PGjHGTS2Pu3Llm9OjRpk+fPvaz0F+tKx3hqBkAAMgQgvbi0ne79957m2uuucbdVGjr1q0zp5566kZXHvwPbdd+qI2aAQCADCFoLy4vaL/kkkvcTYUWFrD7A/davH2qCdpWJMX/DwEAyJEyBB9lVcagXV1f3OA86JGkqwxBOwAAaLoyBB9lVcag/ZhjjtkoMA96aP9q/IH5okWLzL777mv69u1rJk+e3GZbkRX/PwQAIEfKEHyUlb7bsgXtvXv33igwD3po/2r8gfnYsWPt8qRJk9p0vSm64v+HAADkSBmCj7LSd1u2oL1Tp04bBeZBD+1fjT8w934ILFu2zLa6+7cVWfH/QwAAcqQMwUdZ6bv1gnY3WC3iQ5NppdHS7v0QWL9+vX34txVZ8f9DAABypAzBR1npuy1bS3safdq9cd6XLFli3n333Tbbiqz4/yEAADlShuCjrPTdli1ob9ToMf7AfNy4cXZ5woQJ5owzzmizrciK/x8CAJAjZQg+ykrfbdmCdmn0OO1qYR8xYoTp3r27DdwJ2gEAQNOVIfgoq7IG7cyI2hjUDAAAZAhBe3GVNWiXjz76yP7fvXr1Mu3bt7efhf5us802tovL8uXL3SxwUDMAAJAhBO3FVdagfenSpWb48OFmzz33NHfeeae9eVT09/777zejR482n/70p81vf/tbJyf8qBkAAMgQgvbiKmPQrhZ2BexnnnmmXa7lL3/5i/nsZz9rpkyZ4m6qyutWE+aRRx6xn3kRhP+3AACgaaIEIsinMgbtt99+u21hDwrYPf/617/M1ltvbV544QV300aiBu1R98uDYvwXAAAURFECDGysjEH7gQceaO666y43uaYf//jH5oQTTnCT7cyn++67r+nbt6+ZPHlym2D89ddfNyNHjjTdunUzm222mRkyZIh56KGHKvtE2TcPqBkAAMgQgvbiKmPQ3rNnz0of9igUVH/mM59xk83YsWPt5zdp0qQ2I9HIHnvsYW655RazatUq281G6QruxW1pD9o366gZAADIEIL24ipj0N6xY0ezdu1aN7mm1atX2xZwV+/eve3nt2zZMtvq7gbjTz31lDnnnHPM4MGDbbpGphF3v6B9s46aAQCADHEDDBSHP2j3gskiPwYMGGB69OhhFi5c6H4UNc2bN8/06dPHTTadOnWyz7l+/Xr78F5DrrnmGrt8wAEHmCeeeKLNNv9y2L5Zl493CQBASeQlgEB8+m7L1tKufuga1jEqdX859thj3WQbyOvz02yo6m7jD7a7du1qlz/44AP7CArag/bNuny8SwAASiIvAQTiK2PQ/otf/KJqEF7NmjVrTP/+/e0wja5x48bZz2/ChAl2MiZ/sK0+8FqePXu2ueKKK9ps23LLLe3ye++9F7pv1uXjXQIAUBJ5CSAQXxmDdrVma+Ik3fQZRoH5UUcd5SZbamEfMWKE6d69uw3c/cH29OnT7Q2vml3VvUn11ltvNV26dDGjRo0K3Tfr8vEuAQAoibwEEFmW1UCsjEG7aKZTTZykcdirUQu7AvZddtnFrFixwt2M/1/2jmgAAEosi8EmGqOsQbtMnTrVTpykcdhfeeUVm/baa6/ZMde3335728JOwB6MmgEAgAxpRdC+bt06OwTeVlttZXr16mUuvvjiygyWGq7vwgsvNNtuu629iU8T08yfPz80n9farVE6hg0bVjNNz3H++efbLgsa1u+CCy6waf79p02bZoYOHWrH0/Zuagx6X/6W9ixNplPmoF1efPFFO3GSWt31Wah/+ZgxY6r2YcfGml8zAACAmloRtF9++eX2dTUc3tVXX22Xr7rqKrvtsssus+sTJ040c+bMscualj4snxc433nnnbY/cq208ePH2zSNGnLjjTfaZQX//v3PPPNMM2vWLLusGxUl6H15+SRLk+notcsctKM+za8ZAABATV6w2Uz9+vWzr6tJazSmtpYHDhxot6nrgtY1qY0rKJ8XOHujdtRK01jeSlMQr+4RWt5uu+3a7K9t6ves5Xbt2tltQe/Ly+fJymQ6em2CdiTV/JoBAADU5A82m0WzVup11S1FDy137tzZblOXEq1rQhtXUD4vcPbnq5bmPb//0aFDhzb7e/zrQe/Lv1+WJtPR6xK0I6nWHLUAAKCqVgSUXh9jtZgvWLDALg8aNMhu81q0Fy9e7OQKzlctOK6W5o2braEBXe7+/vWg9+XfL0uT6eh1CdqRVGuOWgDA/9feHYNG0YRhHG9EQUEFIQgSQYOKIAjpLYJgJCnsUiRW2qQRrRQDFlHERgtB1ESwsEkkoI2FqEWSQmysjGAgoiBERaMYUaJI5uN5v2+OzWQzudxnuOHm/4Mlu7O3e5c7WZ+bzM4LlKpHoOzr67PnLY5N17ooYGpbc2OPj4/busaJL3dcWTguayueY2xsrBJsyx5f3I69ruLjUiqm43+3HEO7blAeHh62v3ho3na9F5orXRVTVYBpdnY2PASB+vyrBQAApeoRKDVeXFUm/Sww/f39bn5+vrJP48EVtNRr3d7eXplvO3ZcWTgua5ubm7MiNzqHiuB0dna66enp0scXt2Ovq/i4lIrp5BraZ2ZmXFtbm90orJuQ379/b+36qdmAuru77XPUfO5YWn3+1QIAgFL1CpRYfTmGdvWwK7BrBiA/HWgZzeyj4VYDAwPhLrPaX7ZW+/x/Q9qvDgCAzKQeHFC7HEP70NCQ9bDHArunv5SoANPExES4a9VD9Wqf/29I+9UBAJCZ1IMDapdjaO/o6HAjIyNh85JUMVUFmELFUB0r6hUruhUrtEVoBwAAK5J6cEDtcgztup/Aj2GvhoK1bh4OFUN1rKhXrOhWrNAWoR0AAKxI6sEBtcsxtGsuf/V+V0s3JqsXPFQM1bGiXrGiW7JUoS1COwAAWJHUgwNqVwztPiQ28qJqt01NTRasq/XmzRvX3NwcNlfOKbGiXrGiW7FCW8X1VKX96gAAyEzqwQG102ebW0+75mHXtI7VunHjhuvp6QmbF4TqWFGvWNGtWKEtQjsAAFiR1IMDapdjaFfhpLIQXkZz77e0tLjR0dFw14JQHSvqFSu6FSu0RWgHAAArknpwQO1yDO3q0VbhJN34uZze3l7X1dUVNptiqI4V9YoV3YoV2iK0AwCAFUk9OKB2OYZ2UaVTDWnx4TmkoK3A3tra6r5//x7uxn+4MgAAkBBCe+PKNbTL4OCgFU7SPOyTk5PWNjU15W7evGnj0NXDTmCP48oAAEBCCO2NK+fQruJHly9ftqJHmmZR74V+ahjLiRMn3OzsbHgIAlwZAABICKG9ceUa2mdmZlxbW5sVObp7926l2JJ+amaZ7u5uC+8aRoOlcWUAACAhhPbGlWNoVw+7AvupU6dsfSm6UVXj3gcGBsJdpepx42g9nrOofs8MAAAWqWcowOrKMbQPDQ1ZD3sssHu6UVXj3icmJsJdi9Q7QNdDXr8tAACJyy2I5CTH0N7R0eFGRkbC5iXpRtXjx4+HzVZISYWatm/fbjevFkO7qqKePn3apnPctm2bO3PmjLXJ8+fP3YEDB2z6x02bNrnDhw9b1VX5/fu3O3v2rI2z1/5Dhw65t2/f2j5/flVP1fHFtuWOff36tW1v3LjRKrTu37/fPXr0yPbpdWlKSj9d5blz56r6QiNcGQAASAihvXHlGNoVpP0Y9moo8KoIUujYsWP2/qliajjH+sWLFyv7bt++besKw7J7927bfvXqlXv48KGt+2JL58+ft+3r16+7J0+e2Lr+KiD+/BqD//nz5wVtyx2r89+5c8f9/PnThv1on75syIULF2y7WBjqypUrtm85XBkAAEiIDwVoPPpscwvta9eutV7pas3NzVnvdEg96Hr/vnz5Yr3uxQC9a9cuW1e41rSRWt+5c6ft05cGbau3+9atW+7Hjx+Vc2qqSX/OkD//169fF7VJ7Fh59uyZ9ajv27fPHqeZcmTHjh22rd/h48ePtr5nz57g6HJcGQAASIgPBWg8+mx9aPcBsJEXhemmpiYLp9XS0JXm5uaw2a1bt87O+efPH1v8c4hCfvjca9assX3Dw8M2TMW3a1iKH67jj9P5Qv7xxX1lz1l2rHrRtU9Da54+fbrgOH2J0bqGyWjR+vr164MzlOPKAABAQvx/7mg8+mxz62nXOHRN61gtDXHp6ekJmy3I6/1Tb7qG2xSDsIbTaP3bt2/BUf/SMJX79+/b1JJ6nIK7+N7yT58+BUcsDOhlbbFjNcbdvx4txeM0Q47W1dP+4cMHW9+7d29whnJcGQAASEgYFNA49NnmFtqvXr1aGsLL/Pr1y7W0tLjR0dFwl+vt7bX379q1a+7kyZMLgnBfX5+tq4d7bGys8j6Lxplr+8GDB+7Fixe2riEr4v/ioXOOj4/buh/vXjy/V2yLHeu/RDx+/NhdunRpydfqx7RrvRpcGQAASEgYFNA49NnmFtrV06zCSbohczkK5l1dXWGzUQ/7wYMH3ZYtWywoF4OwxsHr5lT1oG/YsMF1dna66elp2/fu3Tt35MgRt3nzZusB15zxCu+iLwkad67Xp33t7e027aQsF9pjx967d8/G0m/dunXRTbM6Tl86/Owx/f39bn5+vvIcMVwZAABISBgU0DhyDO2iSqcaFuJDbUhBVoG9tbXVbiRFOa4MAAAkhNDeuHIN7TI4OGiFkzQP++TkpLVNTU3ZnOsaH64edgJ7HFcGAAASoj//+z+nszTWos8219AuL1++tMJJ/mZMjf0+evRo6Rh2LEZoBwAgMQoyCncsjbdoNpVcQzv+H0I7AAAJ0owSCncsjbeomiawUoR2AAAAIHGEdgAAACBx/wAHw72S8LIifAAAAABJRU5ErkJggg==;" vertex="1" parent="1">
          <mxGeometry x="15" y="230" width="749" height="493" as="geometry" />
        </mxCell>
      </root>
    </mxGraphModel>
  </diagram>
</mxfile>
